<svg width="136" height="32" viewBox="0 0 136 32" fill="none" xmlns="http://www.w3.org/2000/svg">
<path d="M126.509 25.5797C125.581 25.5797 124.758 25.425 124.038 25.1156C123.325 24.8 122.76 24.3265 122.343 23.6952C121.933 23.0576 121.728 22.259 121.728 21.2994C121.728 20.4913 121.87 19.8095 122.154 19.2539C122.438 18.6984 122.829 18.247 123.328 17.8998C123.827 17.5525 124.401 17.2905 125.051 17.1138C125.701 16.9307 126.395 16.8076 127.134 16.7445C127.961 16.6687 128.626 16.5898 129.131 16.5077C129.636 16.4193 130.002 16.2962 130.23 16.1384C130.463 15.9743 130.58 15.7438 130.58 15.4471V15.3998C130.58 14.9136 130.413 14.538 130.078 14.2729C129.744 14.0077 129.292 13.8751 128.724 13.8751C128.112 13.8751 127.62 14.0077 127.247 14.2729C126.875 14.538 126.638 14.9042 126.537 15.3713L122.268 15.2198C122.394 14.336 122.719 13.5469 123.243 12.8524C123.773 12.1517 124.499 11.6024 125.42 11.2047C126.348 10.8007 127.462 10.5986 128.762 10.5986C129.69 10.5986 130.545 10.7091 131.328 10.9301C132.11 11.1447 132.792 11.4604 133.373 11.877C133.953 12.2874 134.401 12.7924 134.717 13.3922C135.039 13.9919 135.2 14.6769 135.2 15.4471V25.3334H130.845V23.3069H130.731C130.473 23.7994 130.141 24.216 129.737 24.5569C129.34 24.8978 128.869 25.1535 128.327 25.324C127.79 25.4944 127.184 25.5797 126.509 25.5797ZM127.939 22.5494C128.437 22.5494 128.885 22.4484 129.283 22.2463C129.687 22.0443 130.009 21.7665 130.249 21.413C130.488 21.0532 130.608 20.6365 130.608 20.163V18.7804C130.476 18.8499 130.315 18.913 130.125 18.9698C129.942 19.0266 129.74 19.0803 129.52 19.1308C129.299 19.1813 129.071 19.2255 128.838 19.2634C128.604 19.3013 128.38 19.336 128.166 19.3676C127.73 19.437 127.358 19.5443 127.049 19.6895C126.746 19.8347 126.512 20.0241 126.348 20.2577C126.19 20.485 126.111 20.7564 126.111 21.0721C126.111 21.5519 126.282 21.9181 126.623 22.1706C126.97 22.4231 127.408 22.5494 127.939 22.5494Z" fill="#2B823F"/>
<path d="M111.954 25.5797C111.026 25.5797 110.203 25.425 109.483 25.1156C108.77 24.8 108.205 24.3265 107.789 23.6952C107.378 23.0576 107.173 22.259 107.173 21.2994C107.173 20.4913 107.315 19.8095 107.599 19.2539C107.883 18.6984 108.275 18.247 108.773 17.8998C109.272 17.5525 109.846 17.2905 110.496 17.1138C111.146 16.9307 111.841 16.8076 112.579 16.7445C113.406 16.6687 114.072 16.5898 114.577 16.5077C115.082 16.4193 115.448 16.2962 115.675 16.1384C115.908 15.9743 116.025 15.7438 116.025 15.4471V15.3998C116.025 14.9136 115.858 14.538 115.523 14.2729C115.189 14.0077 114.738 13.8751 114.17 13.8751C113.557 13.8751 113.065 14.0077 112.693 14.2729C112.32 14.538 112.084 14.9042 111.983 15.3713L107.713 15.2198C107.839 14.336 108.164 13.5469 108.688 12.8524C109.218 12.1517 109.944 11.6024 110.866 11.2047C111.793 10.8007 112.907 10.5986 114.207 10.5986C115.135 10.5986 115.99 10.7091 116.773 10.9301C117.556 11.1447 118.237 11.4604 118.818 11.877C119.399 12.2874 119.847 12.7924 120.162 13.3922C120.484 13.9919 120.645 14.6769 120.645 15.4471V25.3334H116.29V23.3069H116.177C115.918 23.7994 115.587 24.216 115.183 24.5569C114.785 24.8978 114.315 25.1535 113.772 25.324C113.236 25.4944 112.63 25.5797 111.954 25.5797ZM113.384 22.5494C113.882 22.5494 114.331 22.4484 114.728 22.2463C115.132 22.0443 115.454 21.7665 115.694 21.413C115.934 21.0532 116.054 20.6365 116.054 20.163V18.7804C115.921 18.8499 115.76 18.913 115.571 18.9698C115.388 19.0266 115.186 19.0803 114.965 19.1308C114.744 19.1813 114.517 19.2255 114.283 19.2634C114.05 19.3013 113.826 19.336 113.611 19.3676C113.176 19.437 112.803 19.5443 112.494 19.6895C112.191 19.8347 111.957 20.0241 111.793 20.2577C111.636 20.485 111.557 20.7564 111.557 21.0721C111.557 21.5519 111.727 21.9181 112.068 22.1706C112.415 22.4231 112.854 22.5494 113.384 22.5494Z" fill="#2B823F"/>
<path d="M97.1796 25.5417C96.1066 25.5417 95.1315 25.2639 94.2542 24.7084C93.3769 24.1528 92.6763 23.3195 92.1525 22.2084C91.6286 21.0972 91.3667 19.7178 91.3667 18.0701C91.3667 16.3593 91.6381 14.9514 92.1809 13.8466C92.7237 12.7418 93.4337 11.9243 94.311 11.394C95.1946 10.8637 96.1445 10.5985 97.1606 10.5985C97.9243 10.5985 98.5775 10.7311 99.1203 10.9963C99.6631 11.2551 100.111 11.5897 100.465 12C100.818 12.4104 101.086 12.8365 101.269 13.2785H101.364V5.93945H105.994V25.3333H101.411V22.9754H101.269C101.074 23.4236 100.796 23.8435 100.436 24.2349C100.077 24.6263 99.6253 24.9419 99.0825 25.1818C98.546 25.4217 97.9117 25.5417 97.1796 25.5417ZM98.789 21.9337C99.3507 21.9337 99.8304 21.7759 100.228 21.4603C100.626 21.1383 100.932 20.6869 101.146 20.1061C101.361 19.5253 101.468 18.8435 101.468 18.0606C101.468 17.2652 101.361 16.5802 101.146 16.0057C100.938 15.4312 100.632 14.9893 100.228 14.68C99.8304 14.3706 99.3507 14.216 98.789 14.216C98.2146 14.216 97.7287 14.3738 97.331 14.6894C96.9334 15.0051 96.6305 15.4502 96.4222 16.0247C96.2202 16.5992 96.1192 17.2778 96.1192 18.0606C96.1192 18.8435 96.2234 19.5253 96.4317 20.1061C96.6399 20.6869 96.9397 21.1383 97.331 21.4603C97.7287 21.7759 98.2146 21.9337 98.789 21.9337Z" fill="#2B823F"/>
<path d="M76.3003 25.6081C74.7793 25.6081 73.4665 25.3082 72.362 24.7085C71.2638 24.1024 70.4181 23.2407 69.8248 22.1232C69.2378 20.9995 68.9443 19.6643 68.9443 18.1176C68.9443 16.615 69.241 15.3019 69.8343 14.1782C70.4275 13.0481 71.2638 12.1706 72.3431 11.5456C73.4223 10.9143 74.6941 10.5986 76.1583 10.5986C77.1934 10.5986 78.1401 10.7596 78.9985 11.0816C79.8569 11.4036 80.5985 11.8802 81.2233 12.5115C81.8481 13.1428 82.3341 13.9225 82.6812 14.8505C83.0284 15.7722 83.2019 16.8297 83.2019 18.0229V19.1782H70.5632V16.4888H78.8944C78.8881 15.9963 78.7713 15.5576 78.5441 15.1725C78.3169 14.7874 78.0044 14.4875 77.6068 14.2729C77.2155 14.0519 76.7642 13.9414 76.253 13.9414C75.7355 13.9414 75.2716 14.0582 74.8613 14.2918C74.4511 14.5191 74.1261 14.8316 73.8862 15.2293C73.6464 15.6207 73.5201 16.0658 73.5075 16.5645V19.3013C73.5075 19.8947 73.6243 20.4155 73.8578 20.8638C74.0913 21.3057 74.4227 21.6497 74.8519 21.896C75.281 22.1422 75.7923 22.2653 76.3856 22.2653C76.7958 22.2653 77.1682 22.2085 77.5027 22.0948C77.8372 21.9812 78.1244 21.8139 78.3642 21.5929C78.604 21.372 78.7839 21.1005 78.9038 20.7785L83.1546 20.9016C82.9779 21.8549 82.5897 22.6851 81.9901 23.3922C81.3969 24.0929 80.6174 24.639 79.6517 25.0304C78.6861 25.4155 77.569 25.6081 76.3003 25.6081Z" fill="#2B823F"/>
<path d="M61.3033 25.6081C59.7822 25.6081 58.4694 25.3082 57.3649 24.7085C56.2667 24.1024 55.421 23.2407 54.8277 22.1232C54.2407 20.9995 53.9473 19.6643 53.9473 18.1176C53.9473 16.615 54.2439 15.3019 54.8372 14.1782C55.4305 13.0481 56.2667 12.1706 57.346 11.5456C58.4252 10.9143 59.697 10.5986 61.1613 10.5986C62.1963 10.5986 63.1431 10.7596 64.0014 11.0816C64.8598 11.4036 65.6014 11.8802 66.2262 12.5115C66.8511 13.1428 67.337 13.9225 67.6842 14.8505C68.0313 15.7722 68.2049 16.8297 68.2049 18.0229V19.1782H55.5662V16.4888H63.8973C63.891 15.9963 63.7742 15.5576 63.547 15.1725C63.3198 14.7874 63.0074 14.4875 62.6097 14.2729C62.2184 14.0519 61.7672 13.9414 61.2559 13.9414C60.7384 13.9414 60.2745 14.0582 59.8643 14.2918C59.454 14.5191 59.129 14.8316 58.8891 15.2293C58.6493 15.6207 58.5231 16.0658 58.5105 16.5645V19.3013C58.5105 19.8947 58.6272 20.4155 58.8607 20.8638C59.0943 21.3057 59.4256 21.6497 59.8548 21.896C60.284 22.1422 60.7952 22.2653 61.3885 22.2653C61.7987 22.2653 62.1711 22.2085 62.5056 22.0948C62.8401 21.9812 63.1273 21.8139 63.3671 21.5929C63.607 21.372 63.7868 21.1005 63.9068 20.7785L68.1575 20.9016C67.9808 21.8549 67.5927 22.6851 66.9931 23.3922C66.3998 24.0929 65.6203 24.639 64.6547 25.0304C63.689 25.4155 62.5719 25.6081 61.3033 25.6081Z" fill="#2B823F"/>
<path d="M42.9903 30.788C42.4349 30.788 41.911 30.7439 41.4187 30.6555C40.9264 30.5734 40.5036 30.4629 40.1501 30.324L41.1726 26.9623C41.627 27.1138 42.0372 27.2022 42.4033 27.2274C42.7757 27.2527 43.0944 27.1927 43.3595 27.0475C43.6309 26.9086 43.8392 26.6593 43.9843 26.2994L44.1642 25.8638L38.9951 10.7881H43.8423L46.5215 21.1669H46.673L49.3901 10.7881H54.2657L48.7842 26.7256C48.5191 27.521 48.1436 28.2218 47.6576 28.8278C47.1779 29.4402 46.5563 29.92 45.7926 30.2672C45.0352 30.6144 44.1011 30.788 42.9903 30.788Z" fill="#2B823F"/>
<path d="M90.2339 16.2222C91.0379 17.6957 90.8338 20.5972 89.3446 21.3325C87.728 22.1085 84.9013 21.3325 83.7438 19.5579C85.3456 19.5548 86.3493 19.2618 87.568 18.8889C88.9003 18.2214 89.774 17.3223 90.2339 16.2222Z" fill="#29813F"/>
<path d="M29.0645 15.1691C29.0645 14.9226 29.0868 14.7433 28.9302 14.5416C28.6618 14.183 28.3486 13.8468 28.0354 13.533C27.5433 13.0848 26.8945 12.7262 26.3129 12.4349C25.0154 11.7849 23.6285 11.3367 22.2192 11.0229C19.2663 10.373 16.1792 10.2609 13.1592 10.3954C11.9289 10.4626 10.6985 10.5299 9.4905 10.754C9.02072 10.8436 8.55095 10.9333 8.10354 11.0902C7.6114 11.2471 7.09688 11.4263 6.69422 11.7401C6.56 11.8298 6.44814 11.9418 6.33629 12.0539C6.24681 12.1659 6.15733 12.3004 6.09022 12.4349C6.02311 12.5469 5.93363 12.659 5.88889 12.7935C5.84415 12.9055 5.82178 12.9952 5.82178 13.0848C5.82178 13.1969 5.86652 13.2865 5.86652 13.3762C5.86652 13.3986 6.56 13.4658 6.62711 13.4882C6.89555 13.533 7.16399 13.5555 7.43243 13.5779C8.41673 13.6899 9.42339 13.7796 10.4077 13.8692C12.4657 14.0485 14.5462 14.2502 16.6266 14.4295C18.6176 14.6088 20.5861 14.7657 22.5771 14.9674C24.5904 15.1691 26.5814 15.438 28.6171 15.3932C28.7289 15.3932 28.8631 15.3932 28.975 15.3932C29.1316 15.3932 29.0645 15.326 29.0645 15.1691ZM11.1182 12.2224C10.7827 12.4241 10.6735 12.4446 10.3406 12.7486C9.78131 13.3313 8.79702 13.0176 8.0588 12.9503C7.94695 12.9503 7.8351 12.9279 7.70088 12.9055C7.56666 12.8831 7.34295 12.9279 7.36532 12.7935C7.36532 12.6142 7.41006 12.4797 7.47718 12.3004C7.56666 12.0987 7.92458 12.0091 8.12591 11.9194C8.39436 11.8073 8.6628 11.7177 8.95361 11.6505C10.005 11.3591 11.1235 11.1798 12.2197 11.2022C12.2644 11.2022 12.3091 11.2022 12.3539 11.2022C11.9289 11.4936 11.563 11.955 11.1182 12.2224Z" fill="#29813F"/>
<path d="M6.04665 4.52717C4.90577 4.45993 3.89911 3.36176 4.01096 2.21876C4.14518 0.986116 5.39791 0.112059 6.56117 0C6.11376 0.717175 5.37554 1.32229 5.15184 2.17394C4.90577 3.048 5.57687 3.85482 6.04665 4.52717Z" fill="#29813F"/>
<path d="M7.25342 9.20716C7.85741 7.72799 8.88645 6.47293 9.51281 4.99376C9.84837 4.20935 9.96022 3.42494 9.19963 2.88705C8.618 2.46123 7.92452 2.23711 7.27579 1.99058C8.08112 1.65441 9.13252 1.632 9.93785 1.99058C10.8998 2.41641 11.4367 3.40252 11.3024 4.43346C11.1682 5.57646 10.4747 6.6074 9.69177 7.43664C8.97593 8.15381 8.14823 8.78134 7.25342 9.20716Z" fill="#29813F"/>
<path d="M3.69708 14.9451C1.57191 14.833 -0.665116 12.8384 0.184954 10.5748C0.900801 8.6698 3.22731 7.5268 5.10641 7.28027C4.05501 8.51292 2.51146 9.4318 1.75087 10.911C0.945542 12.5246 2.66805 13.9366 3.69708 14.9451Z" fill="#29813F"/>
<path d="M20.4077 10.0368L16.1574 9.61095C15.8889 9.58854 15.6876 9.34201 15.7323 9.07307L15.8889 7.45942C15.9113 7.19048 16.1574 6.98877 16.4258 7.0336L20.6761 7.45942C20.9446 7.48183 21.1459 7.72836 21.1012 7.9973L20.9446 9.61095C20.9222 9.87989 20.6761 10.0592 20.4077 10.0368Z" fill="#2B823F"/>
<path d="M32.0182 19.2029L31.9735 18.7323C31.9064 18.1495 31.3919 17.7237 30.8102 17.791L28.1929 18.0599C28.1705 17.6565 27.8574 17.3203 27.4547 17.3203H6.56088C6.15822 17.3203 5.82267 17.6565 5.82267 18.0823V18.4857L3.36194 18.2392C2.78031 18.172 2.2658 18.5978 2.19869 19.1805L2.15395 19.6511C2.08684 20.2338 2.51187 20.7493 3.0935 20.8165L5.82267 21.1079V21.5561V22.1388V28.4365C5.82267 30.4088 6.96355 32 8.37287 32H25.6427C27.052 32 28.1929 30.4088 28.1929 28.4365V22.1388V21.5561V20.6597L31.0563 20.3683C31.6379 20.3235 32.063 19.7856 32.0182 19.2029ZM12.3995 30.2967H9.37954C9.35717 30.2967 9.3348 30.2967 9.31243 30.2967H9.26768C8.3505 30.2967 7.61229 29.3778 7.61229 28.2348V22.0492C7.61229 21.982 7.61229 21.9371 7.61229 21.8699V20.5476C7.61229 20.2338 7.88073 19.9649 8.19391 19.9649H9.26768H9.31243H9.37954H11.5271H12.3995V30.2967Z" fill="#2B823F"/>
</svg>
