<svg width="48" height="48" viewBox="0 0 48 48" fill="none" xmlns="http://www.w3.org/2000/svg">
<path d="M29.6134 27.516C31.0658 25.5341 31.7163 23.0768 31.4348 20.6358C31.1533 18.1947 29.9605 15.95 28.095 14.3507C26.2295 12.7514 23.829 11.9154 21.3736 12.01C18.9183 12.1047 16.5891 13.1229 14.8523 14.861C13.1154 16.5991 12.0988 18.9289 12.006 21.3844C11.9131 23.8398 12.7508 26.2398 14.3515 28.1041C15.9521 29.9684 18.1977 31.1596 20.6389 31.4394C23.0801 31.7192 25.5369 31.0669 27.5179 29.613H27.5164C27.5614 29.673 27.6094 29.73 27.6634 29.7855L33.4384 35.5605C33.7196 35.842 34.1012 36.0002 34.4991 36.0003C34.897 36.0005 35.2787 35.8425 35.5601 35.5613C35.8416 35.28 35.9998 34.8985 35.9999 34.5006C36.0001 34.1027 35.8421 33.721 35.5609 33.4395L29.7859 27.6645C29.7322 27.6102 29.6746 27.5601 29.6134 27.5145V27.516ZM30.0004 21.75C30.0004 22.8334 29.787 23.9062 29.3724 24.9072C28.9578 25.9081 28.3501 26.8176 27.584 27.5837C26.8179 28.3497 25.9084 28.9574 24.9075 29.372C23.9066 29.7866 22.8338 30 21.7504 30C20.667 30 19.5942 29.7866 18.5932 29.372C17.5923 28.9574 16.6828 28.3497 15.9167 27.5837C15.1507 26.8176 14.543 25.9081 14.1284 24.9072C13.7138 23.9062 13.5004 22.8334 13.5004 21.75C13.5004 19.562 14.3696 17.4636 15.9167 15.9164C17.4639 14.3692 19.5623 13.5 21.7504 13.5C23.9384 13.5 26.0368 14.3692 27.584 15.9164C29.1312 17.4636 30.0004 19.562 30.0004 21.75Z" fill="black" fill-opacity="0.92"/>
</svg>
